<svg width="55" height="48" viewBox="0 0 55 48" xmlns="http://www.w3.org/2000/svg">
  <path d="M16.041 22.486c.583-.306.917-.681.972-1.125.014-.098.014-.208-.042-.292a.748.748 0 0 0-.306.015c-.319.264-.75.666-1.139.93-.111.015-.431.042-.569.084-.042-.028-.097-.098-.07-.125.361-.236.764-.459 1.028-.778.168-.195.085-.361-.235-.403-.361-.056-.792.097-1.125.389-.569.486-.833 1.556-.889 2.236-.125.111-.167.111-.292.167-.111-.473-.139-1.028.014-1.5.056-.209.139-.375.292-.709.056-.139.014-.361-.181-.431-.125-.041-.181-.014-.236.111-.277.806-.764 1.153-1.444 1.653-.069.055-.681.389-.847.485-.292-.139-.486-.319-.75-.652-.278-.348-.667-.931-.903-1.278a.47.47 0 0 0-.444-.194c-.375.029-.945.07-1.403-.041-.514-.125-.819-.348-1.139-.792-.264-.361-.389-.431-.722-.111-.278.25-.542.514-.82.778-.083.083-.18.152-.292.222-.208.125-.347.084-.431-.166-.264-.75-.361-1.542-.361-2.348 0-.333.028-.833.042-1.167a2.868 2.868 0 0 0-.708-.472c-.736-.348-1.292-.861-1.861-1.431-.111-.11-.18-.249-.18-.36 0-.083.056-.264.319-.417.333-.194.861-.291 1.361-.305.444-.015 1.028.194 1.472.152.347-.027.458-.292.403-.777-.125-1.07.222-1.765.875-2.417.472-.5.431-1.042.319-1.653-.055-.278-.124-.347-.402-.32-.736.167-.709.181-.847.834-.083.416-.236.847-.472 1.194-.292.472-.694.875-1.042 1.291-.125.167-.264.167-.445.056a2.442 2.442 0 0 1-.958-3.083c.125-.319.305-.667.5-.848l.083.042c.01.06.005.123-.014.181l-.222.695c-.278.806-.236 1.569.306 2.264.055.056.111.14.18.167.07.042.208.056.25.014.347-.347.695-.666 1-1.041.361-.417.472-.931.361-1.459a8.642 8.642 0 0 0-.097-.612c-.014-.07-.069-.166-.125-.195-.042-.013-.125.042-.194.112-.333.333-.486.598-.639 1.223a.497.497 0 0 1-.167.222.659.659 0 0 1-.069-.319c.083-.569.222-1.056.569-1.417.236-.25.181-.389-.042-.458-.805-.223-1.485-.446-2.097-1.196A.659.659 0 0 1 1 6.709c0-.153.083-.278.264-.403.708-.487 1.416-.987 2.111-1.139.278-.056.431-.069.569-.083-.319-1-.653-2.181-.847-3.278 0-.222.167-.833.25-1.014.153-.014.347-.014.625.083.319.111.625.319.917.5.291.167.374.167.555-.097.333-.473.708-.89 1.194-1.14.167-.082.278-.138.39-.138.167 0 .292.098.444.334.264.444.5.944.75 1.402.278.473.569.5 1 .194a15.61 15.61 0 0 0 1.333-.986c.417-.319.528-.319.972-.014.403.278.833.792 1.056 1.236.042.083.972-.417 1-.639.042-.403.153-.694.305-1.015.195-.401.473-.512.723-.512.236 0 .667.264 1 .473.236.139.472.277.708.402.361.209.389.209.611-.139.25-.389.472-.458.986-.458 1.028 0 1.958.25 2.667 1.097.125.167.25.181.403.028.292-.292.569-.403 1.097-.403h.958c.208 0 .347.014.542-.264.264-.375.555-.736.986-.736.667 0 1.542.944 1.986 1.75l-.236.111a4.027 4.027 0 0 0-.653-.513 5.803 5.803 0 0 0-1.097-.584c-.403-.166-.583 0-.528.417.056.5.181 1 .306 1.486.139.458.542.861.986 1.056l.028.166c-.07-.014-.167-.041-.278-.055-.32-.042-.583-.056-.875.027-.555.139-1.07.389-1.57.598-.25.125-.25.194-.042.389.278.264.542.569.861.791.903.681 1.792.542 2.792.167l.472-.167c.417-.069.861.098 1.208.417l1 .903c.319.305.389.569.194.958a49.66 49.66 0 0 1-1.056 1.917c-.042.069-.139.194-.236.235-.125-.097-.236-.319-.111-.527l.181-.264a3.856 3.856 0 0 0 .639-1.611c.083-.514-.194-.764-.68-.625l-.417.152c-.181.069-.25 0-.292-.181-.056-.166-.139-.264-.194-.43-.111-.278-.278-.375-.514-.195-.417.265-.722.528-.972.945-.319.527-.417 1.166-.417 1.819 0 .125 0 .25.028.347.014.084.083.153.139.209a.398.398 0 0 0 .194-.181 4.98 4.98 0 0 0 .264-1.015c.028-.194.056-.541.125-.722.043-.096.196-.054.279-.026.208.084.292.181.319.334-.417.527-.681 1.319-.958 2.027-.042.098-.222.223-.333.223-.125-.014-.306-.125-.348-.236-.167-.444-.458-.889-.583-1.333-.306-1.515-.403-1.598-.472-1.694-.639-1.028-1.32-1.848-2.25-2.57-.07-.069-.111-.152-.167-.222.083-.042.153-.111.236-.139a9.96 9.96 0 0 1 .889-.334 1.4 1.4 0 0 0 .792-.722c.111-.194.25-.389.361-.584.153-.277.139-.43-.069-.666-.403-.444-.889-.584-1.472-.459-.569.14-.917.542-1.097 1.084-.069.194-.083.402-.097.611 0 .305.097.36.347.208l1.097-.792.236-.125c-.208.473-.5.848-.917 1.111-.278.181-.556.333-.833.486-.236.166-.319.097-.389-.181-.069-.306-.042-.611-.042-.903.014-1-.486-1.639-1.32-1.985l-.736-.306a.702.702 0 0 0-.277.639c.069.527.083.931.181 1.542.042.194.069.36.139.541.125.278.431.39.75.444.18-.082.333-.346.083-.763-.083-.166-.194-.361-.361-.708-.042-.098-.083-.181-.111-.278-.014-.041-.028-.11 0-.152.042.014.083.014.181.111a4.9 4.9 0 0 1 1.083 1.777c.097.278.014.389-.264.417-.611.056-1.236.097-1.833.222-.972.209-1.292.57-1.653 1.209-.153.277-.222.458-.236.625.347.027.736.014 1.292-.084.611-.11.944-.208 1.347-.444.264-.306.472-.61.861-.889.111-.083.361-.111.472-.056 1.139.569 1.986 1.292 2.556 2.514.042.111.152.223.208.32.028.041.056.097.042.139-.028.014-.098.041-.139.027-.222-.069-.458-.125-.667-.208-.083-.042-.153-.167-.194-.264l-.195-.569c-.111-.236-.167-.236-.403-.153-.125.042-.25.098-.444.181-.167.069-.25.098-.292-.083a14.661 14.661 0 0 0-.194-.819c-.111-.306-.236-.361-.528-.223-.542.281-.98.729-1.25 1.277-.264.542-.361.917-.125 2.348.056.277.278.625.542.708l2.431.75c.056.028.083.056.125.084a.242.242 0 0 1-.083.139c-.306.208-.625.389-.931.583-.167.098-.25.042-.319-.097-.208-.444-.569-.723-1-.917-.153-.069-.236-.042-.306.125-.111.264-.236.639-.333.917-.056.139-.125.194-.278.083-.694-.569-1.417-.598-2.264-.486-.417.056-.611.167-.514.584.167.694.514 1.139 1.083 1.541.194.139.528.334 1.028.542a.59.59 0 0 0 .305-.236c.125-.181.083-.375-.097-.542-.333-.291-1.042-.625-1.389-.944-.056-.069.125-.208.25-.264.083.028.208 0 .292.056.639.292 1.125.806 1.625 1.306.264.25.389.222.472-.139.097-.292.181-.709.264-1.028.014-.041.055-.083.083-.125.042.042.097.069.111.111.056.25.139.569.139.848 0 .291-.111.555-.194.833-.056.277-.264.431-.5.375-.611-.111-1.167.139-1.736.25-.25.069-.542.139-.806.167-.153 0-.458-.098-.625-.167-.042-.028-.056-.098-.083-.139a.9.9 0 0 1 .278-.069c.278 0 .694 0 .917-.125a1.296 1.296 0 0 0-.292-.265c-.597-.485-1.264.028-1.778.292-.292.152-.306.194-.181.5.181.458.514.639.972.639.264 0 .514.042.778.028a.91.91 0 0 0 .375-.084c.347-.139.653-.306.972-.444.098-.027.223.028.333.056-.028.098-.056.223-.125.278l-.792.485c-.083.042-.181.069-.236.125-.111.084-.25.223-.236.278.063.125.172.22.305.264.361.111.736.167 1.098.25.569.111.819-.042.972-.611.083-.319.194-.611.333-.902.097-.194.208-.209.32-.014.389.722.805 1.43 1.222 2.139.069.152 0 .236-.153.208a58.76 58.76 0 0 1-2.694-.333c-.306-.042-.611-.236-.917-.375-.472-.209-.931-.403-1.458-.389-.458.014-.723.277-.57.722.208.625.445 1.264.695 1.889.18.431.597.584 1.055.625.208.028.139-.125.083-.222l-.75-1.611c-.028-.056-.028-.139-.056-.208l.056-.028c.056.056.111.098.139.153.403.61.833 1.194 1.208 1.819.069.111.111.306.056.389-.055.083-.25.139-.389.125-.944-.098-1.805-.417-2.694-.764-.097-.042-.236-.236-.208-.319.014-.042.139-.084.236-.069l.333.069c.208.041.306-.056.222-.223a.852.852 0 0 0-.458-.417 5.653 5.653 0 0 0-1.347-.485c-.278-.056-.458.069-.403.319.069.319.222.611.389.944a.5.5 0 0 1 .014.319c-.167-.014-.375.042-1.069-.25s-.708-.486-.708-1.348c0-.18 0-.541.042-.708.069-.236.097-.292.305-.25.722.153 1.458.348 2.181.694.208.098.417.278.639.361.18.069.277 0 .25-.194a.652.652 0 0 0-.403-.556c-.764-.319-1.528-.681-2.292-.986-.194-.083-.25-.166-.153-.361.306-.5.473-1.083.333-1.722 0-.042.056-.111.111-.167.083.014.18.069.236.139a.545.545 0 0 1 .111.292c.056.542.417.917.778 1.278.708.75.708.75 1.722.5.125-.015.222-.111.333-.181-.097-.084-.194-.209-.319-.265-.181-.097-.389-.152-.597-.235-.667-.25-.861-.723-.639-1.431.236-.639.444-1.292.625-1.944.069-.306.083-.64.111-.959 0-.194.139-.194.25-.208.486-.027.986-.056 1.458-.098.375-.027.792-.458.944-.708l.486-.792a.861.861 0 0 0-.431-.222c-.194-.042-.333 0-.569.069.111-.361.264-.708.264-1.056 0-.222-.056-.486-.153-.722-.097-.223-.25-.265-.431-.125-.361.305-.652.652-.764 1.139-.082.34-.156.683-.222 1.027-.069.278-.042.417 0 .5.099-.04.21-.124.279-.18.111-.11.292-.222.444-.264.097-.027.25-.014.333.056-.111.125-.264.194-.375.292a3.217 3.217 0 0 1-.708.458c-.264.111-.375-.042-.319-.306.056-.25.125-.5.153-.736.055-.402-.042-.777-.139-1.166-.153-.528-.25-.89-.5-1.403a4.193 4.193 0 0 0-.403-.681c-.125-.166-.333-.11-.611.223-.444.542-.569 1-.792 1.931l-.055.181-.32.291-.138-.167c.125-.431.25-.681.25-1.028 0-.416-.181-.708-.458-.944-.347.223-.667.5-.75.653-.208.347-.222.694.014 1.055.361.625.306 1.25.194 1.986l-.097-.027c-.069-.542-.125-.959-.264-1.417-.069-.292-.264-.542-.43-.806-.154-.236-.293-.736-.168-.944.195-.319.778-.486 1-.792.236-.347.125-.5.417-.819.18-.208.555-.652.833-.5.847.417 1.736.515 2.681.39.403-.056.486-.042.597-.445.083-.333.139-.11.472-.222.57-.194.861-.694.861-1.306 0-.333.028-.681-.014-1.027-.027-.292-.139-.584-.236-.848-.069-.181-.194-.139-.278-.014-.236.306-.625.916-.833 1.25-.125.194-.222.389-.333.597-.056.153-.125.194-.264.042a3.042 3.042 0 0 0-.5-.431c-.306-.194-.333-.806-.208-1.194.125.069.222.223.305.417.111.264.167.556.375.652.264.139.542-.417.5-.806a.739.739 0 0 0-.083-.277c-.32-.528-1-.959-1.417-.959-.486 0-.792.598-.597 1.167.05.14.116.276.194.403-1.152.597-1.458.985-1.917 1.514-.056.069-.111.25-.056.347.222.403.139.542-.305.792a3.946 3.946 0 0 1-.667.277c-.028.015-.083-.027-.139-.041a.27.27 0 0 1 .056-.111c.277-.625.583-1.223.847-1.848.278-.68-.333-1.319-.889-1.527-.36-.139-.652-.056-.888.263-.68.903-.667 1.917.028 2.903.028.041.069.083.083.125.125.181.084.264-.125.278-.486.042-.972.097-1.472.125a1.97 1.97 0 0 0-1.486.792c-.111.166-.264.208-.417.096-.388-.235-.708-.18-1.111.056-.43.264-.902.403-1.402.556-.14.042-.292.055-.431.055-.069 0-.153-.056-.208-.111.041-.056.097-.139.236-.181.25-.083.528-.139.806-.208.124-.027.235-.055.277-.097.055-.07.097-.222.125-.291-.07-.098-.208-.209-.305-.223a5.048 5.048 0 0 0-1.014 0c-.876.084-1.528.5-2.084 1.028-.264.264-.292.527 0 .735.653.473 1.347.931 2.222.709a2.22 2.22 0 0 0 .806-.459c.222-.194.417-.429.597-.638.333-.361.75-.777 1.139-.333.569.652.681 1.333 1.611 1.222.347-.041.5-.166.597-.5l.069-.402c.028-.264-.111-.389-.361-.292-.166.055-.319.153-.485.194-.097.028-.195-.014-.306-.041.014-.098.028-.223.097-.279.167-.11.361-.208.556-.291a39.308 39.308 0 0 1 2.042-.459.597.597 0 0 1 .223 0l-.07.194c-.251.571-.584.751-1.042.862a1.136 1.136 0 0 0-.25.444c-.292.931-.125 1.903.5 2.569.222.25.5.459.792.64.486.277.611.735.792 1.235.111.306.236.611.375.917-.389.292-.722.611-.945 1.014-.097.084-.167.056-.222-.056l-.264-.666c-.25-.584-.653-.959-1.306-1.014-.236-.014-.472-.055-.694-.083-.264-.027-.444.098-.542.403-.25.791-.208 1.527.5 2.264.097.097.319.319.555.417-.125.027-.25.069-.375.11-.375.125-.625.209-.944.417a2.519 2.519 0 0 0-.681.625c.042.167.306.389.639.527.847.348 1.694.306 2.486.042.458-.167.486-.056.57.278l.236 1.041c.056.25-.083.389-.319.306-1.278-.375-2.792-.986-3.889-1.722a6.598 6.598 0 0 0-1.444-.431c-.167.097-.306.222-.458.194-.348-.056-1.056-.348-1.375-.486a.412.412 0 0 1-.153-.152.328.328 0 0 1 .194-.083c.431 0 1.208.181 1.611.181a.646.646 0 0 0 .32-.139.481.481 0 0 0-.167-.208c-.944-.736-2-.57-3.055-.39-.375.069-.403.25-.181.542.597.708 1.264 1.277 2.208 1.389.611.069 1.125 0 1.806-.056 1.083.694 2.167 1.306 3.417 1.709.014.041.014.11.027.181-.5.055-.944.083-1.375.152-.403.056-.806.139-1.195.223-.403.083-.486.333-.264.708.333.542.861.792 1.472.944.431.125.875.098 1.292-.083.514-.236.834-.653 1.319-.917.278-.152.736.014 1.014.098.431.139.847.319 1.278.389.708.125 1.417.181 2.125.222.764.056 1.5.111 2.306.098.222 0 .472-.042.75-.056-.182.348-.335.71-.458 1.083-.083.223-.014.278.222.265.333-.015.667-.209.806-.473.028-.25.028-.486.083-.75.028-.139.07-.333.167-.348.056-.014.458.056.417.167-.083.223-.153.444-.25.667l-.181.444c.153.027.306.056.472.056.639 0 .75-.098.723-.75a3.76 3.76 0 0 0-.083-.542c-.083-.486.014-.819.431-1.042.417-.208.833-.139 1.25-.097 1.292.139 2.68.931 3.528 1.597.514.403.069.973.069 1.75 0 .486-.097.986-.083 1.236.014.403.181.611.333.723.444.347.944.694 1.417 1 .486.319.722.514 1.306.708a1 1 0 0 0 .403.028 1.49 1.49 0 0 0-.028-.598c-.278-.181-.667-.277-1.111-.431-.083-.027-.167-.139-.222-.236.097-.083.236-.181.333-.194l.722-.152a.498.498 0 0 0 .194-.153c-.042-.069-.097-.152-.153-.166-.305-.084-.694-.153-.944-.223-.097-.027-.139-.111-.208-.194a.953.953 0 0 1 .348-.181l.75-.097a.396.396 0 0 0 .194-.125c-.028-.07-.069-.167-.125-.195-.153-.069-.917-.347-1-.43-.069-.07-.083-.167-.111-.278.111-.056.25-.097.347-.083.264.014.361.014.625.014.083 0 .181-.056.25-.125a.56.56 0 0 0-.167-.194c-.292-.181-.403-.319-.736-.473-.167-.083-.236-.181-.264-.375.111-.027.278-.041.417-.014.222.056.347.125.583.167.069.014.194-.014.264-.028a.26.26 0 0 0-.069-.194c-.083-.083-.208-.139-.319-.222-.167-.111-.458-.39-.625-.528-.056-.041-.028-.181-.042-.236.069 0 .125 0 .194.015.222.041.556.139.736.166.07.015.167.028.236.015-.014-.084-.028-.181-.083-.236-.208-.194-.417-.306-.611-.528-.056-.069-.042-.194-.028-.291l.292.056.361.083c.111.027.194.027.278.027a.328.328 0 0 0 .042-.166 4.895 4.895 0 0 0-.236-.569c0-.07-.028-.153 0-.209.055-.014.139-.014.194-.014.222.083.569.277.819.333.097.028.208 0 .333-.041-.042-.125-.125-.209-.181-.306l-.208-.319c-.028-.056 0-.14.042-.209.069.015.139.028.236.069.236.14.556.25.889.39.153.069.25 0 .292-.069.028-.084-.25-.361-.236-.486.014-.069.028-.084.07-.139.152.041.444.152.652.208l.667.111a.533.533 0 0 0 .153-.056c.083-.028-.014-.25-.153-.514a.47.47 0 0 1 .278 0c.236.097.486.25.805.277.403.042.82-.056 1.153-.111 1.445-.25 2.611-.306 4-.75a14.706 14.706 0 0 0 1.736-.708l.167.042c.403 1.027 1.25 1.333 2.111 1.43.25.028.528.042.792.056.25 0 .306-.069.236-.319a4.492 4.492 0 0 0-1.292-2.194l-.556-.347c-.25-.25-.222-.542.042-.736.444-.306 1.042-.598 1.486-.875.653-.417.875-1.056.833-1.736-.014-.194-.056-.319-.236-.458a.731.731 0 0 0-.333.235c-.153.25-.264.528-.389.792-.042.069-.069.167-.125.208-.125.07-.25.098-.361.14-.028-.111-.097-.223-.069-.334a1.42 1.42 0 0 1 .222-.458c.208-.292.472-.583.819-.958.042-.056.056-.153.083-.223-.083-.027-.167-.097-.25-.083-.375.083-.778.222-1.056.541-.319.39-.361.5-.625.931-.375.598-.681 1.417-.847 2.111-.07.292-.181.389-.278.667-.125.402-.111.5.236.75.514.333 1.181.639 1.667.986.055.055.083.152.125.222-.07.014-.153.069-.236.069-.542-.014-1-.222-1.389-.625-.195-.208-.347-.333-.57-.361-.5.125-1.194.334-1.722.403-.292.056-.528.181-.68.458-.111.236-.32.278-.57.194-.361-.11-.736-.235-1.111-.319-.514-.139-1.056-.041-1.569.069a.902.902 0 0 1-.292.056c-.25.042-.306-.014-.236-.264.069-.306.167-.598.222-.902.014-.125.028-.32-.083-.39-.125.056-.306.084-.361.167-.195.292-.348.598-.528.917-.125.25-.167.25-.431.139a4.783 4.783 0 0 1-1.056-.639c-.25-.403-.514-.736-.653-1.084-.042-.097.097-.166.222-.166.278.222.611.5.861.75.167.181.222.36.333.61.028.056.305.042.347-.055a2.43 2.43 0 0 0 .125-.431c.083-.375.028-.89-.306-1.223-.417-.417-.694-.5-1.264-.889-.708-.486-.805-.458-1.069.014-.223.4-.343.848-.347 1.306.194 1.139.458 1.598 1.833 2.306a.38.38 0 0 1-.111.181c-.083.083-.139.125-.292.125-.486-.014-1.167-.028-1.694-.069-.153-.015-.25-.056-.278-.14-.444-1.694-.208-3.458.611-5.027.083-.152.195-.292.333-.361.292-.152.736-.347 1.028-.472.167-.069.25-.015.319.152.125.444.167.764.208 1.139.014.236.028.473.125.515.222.097.417-.084.528-.278.417-.681.528-1.444.222-2.264-.028-.069.042-.223.125-.264.944-.39 1.833-.778 2.792-1.153.542-.027 1.222.028 2.181.181.167.028.5.306.847.5-.444.223-1.083.694-1.528 1.125-.125.125-.278.292-.167.653.361-.028.556-.125.833-.209.431-.125.695-.181 1.042-.181.083 0 .194.015.278.028a.51.51 0 0 1-.125.291c-.125.111-.319.084-.458.167s-.278.236-.194.403c.069.11.264.235.389.222.447-.02.89-.095 1.319-.222.208-.167.986-1.195.542-1.292-.25-.056-.792-.098-1.028-.208a.467.467 0 0 1 .278-.32c.25.042.528.111.903.153.361.042 1.417.083 1.833-.083.25-.098.333-.195.25-.348-.389-.708-.93-1.264-1.708-1.486-.333-.097-.736-.027-1.083-.027l-3-.028c-.069 0-.139-.056-.208-.097.055-.044.111-.1.166-.127.292-.167.611-.306.889-.5.431-.292.694-.709.819-1.236a.517.517 0 0 0 0-.292c-.278-1.027-.847-1.764-2-1.902l-.583-.098c-.208-.014-.292.084-.292.278 0 .361.014.556 0 .931 0 .194.097.25.306.277.528.083 1.083.25 1.583.458.306.125.361.306 0 .625-.181.14-.514.361-.847.598-.139.082-.208.013-.222-.126-.028-.223-.028-.458-.056-.681a.467.467 0 0 0-.125-.208.585.585 0 0 0-.444.375c-.105.28-.184.567-.236.861-.069.375-.292.61-.639.735-.167.056-.32-.014-.292-.166.028-.194.07-.375.125-.556.264-.653.403-1.209.347-1.834a13.38 13.38 0 0 1-.097-1.277.392.392 0 0 1 .292-.417c.5-.194.972-.389 1.5-.556.18-.069.333.015.472.181.347.417.694.834 1.055 1.25.278.307.362.293.598-.04.222-.319.458-.611.819-.806.181-.098.181-.264-.028-.348-.403-.152-.806-.236-1.222-.375-.097-.027-.194-.027-.292-.069-.069-.027-.152-.111-.152-.167 0-.055.083-.139.152-.166.583-.209 1.153-.431 1.723-.639.111-.028.236-.084.347-.14.18-.083.278-.235.25-.431-.014-.248-.083-.47-.125-.706-.042-.222-.181-.389-.417-.417-.43-.055-.889-.027-1.292.195-.306.166-.569.36-.833.625a.574.574 0 0 0-.153.514.664.664 0 0 0 .292-.014c.35-.094.686-.235 1-.417.167-.181.292-.375.389-.375.056 0 .153.236.181.319-.083.111-.181.223-.917.542-.445.208-1.417.597-2.139.86-.986.362-1.458.431-1.944.543-.056 0-.111 0-.139-.042-.028-.014-.014-.083.014-.139.264-.458.556-.944.847-1.416.042-.07.139-.098.264-.084 0 .084.014.181-.014.25-.083.194-.194.375-.306.569-.014.056-.028.153-.014.167a.222.222 0 0 0 .181.056c.611-.139 1.139-.778 1.153-1.389 0-.236-.111-.319-.348-.306-.36.028-.75.056-1.097.153-.653.167-1.042.625-1.25 1.223-.09.277-.16.56-.208.847-.056.306-.32.417-.583.569-.458.278-.694.223-1.083.292a6.405 6.405 0 0 0-.722.167c-.083.027-.167.041-.25.056 0-.111-.028-.209 0-.278.222-.347.417-.694.653-1.014.319-.486.236-.75-.292-.944a1.938 1.938 0 0 0-2.222.792c-.278.444-.486.972-.681 1.458-.125.292 0 .472.306.527.472.084 1.042-.083 1.472-.208-.028.139-.042.681-.083.792a7.746 7.746 0 0 1-.292.597c-.167.306-.361.403-.694.25-.5-.236-.986-.5-1.458-.791-.557-.335-1.099-.557-1.724-.557a.862.862 0 0 1-.194-.028c-.195-.041-.208-.111-.083-.236.152-.166.166-.32.069-.514l-.639-1.194c-.139-.25-.292-.583-.306-.694.153-.027.736.167.75.277.056.361.083.542.194.903.069.236.236.444.389.625.07.083.237.167.32.125.097-.028.194-.181.208-.292.042-.347-.417-.902.181-2.194C27.708.986 28.513 0 29.041 0c.278 0 .5.125.667.528.097.194.167.639.25.819.069.194.167.277.361.264.514-.069 1.208-.375 1.778-.444.361-.056.639.847.819 1.167.278.485.403.902.722.389.278-.473.57-.944.861-1.403.125-.181.319-.333.514-.444.723-.402 1.625-.486 2.348-.402.25.027.319.125.264.375-.042.151-.056.304-.097.457-.028.098.014.153.056.167.055.014.153 0 .25-.069a2.84 2.84 0 0 0 .389-.319l.264-.292C38.972.264 39.444 0 40.403 0c.444 0 .792.098 1.194.236.306.111.347.152.264.458-.098.306-.181.598-.264.904-.097.402-.028.458.333.666.319.181.569.32.764.556.153 0 .333-.069.403-.139.389-.792 1.069-1.569 1.722-1.944.292-.167.375-.152.486.139.167.431.292.834.375 1.292.028.125.042.333.069.486.083-.069.25-.292.333-.39.194-.208.361-.444.667-.722.458-.417.861-.694 1.556-.806.542-.083 1.306.027 1.806.181.333.097.069.431-.125.694-.083.139-.167.25-.264.389-.083.139-.153.153-.264.028-.167-.194-.333-.542-.5-.709-.306-.306-.847-.125-1.222.098a5.006 5.006 0 0 0-1.806 1.847c-.264.431-1.167 1.584-1.583 1.875-.056.028-.139.015-.208.028l.028-.194a6.666 6.666 0 0 0 1.098-3.459c-.181-.041-.403-.014-.639.14-.26.172-.477.4-.639.666-.639 1.042-.806 2.098-.889 2.944-.028.265-.028.473-.264.598-.389.223-.542.319-.931.5-.097.014-.153 0-.236-.014.195-.819.056-1.389-.417-2.167-.083-.152-.194-.222-.361-.167a3.087 3.087 0 0 0-.403.292c-.708.638-1.098 1.569-1.098 2.694 0 .194.195.194.32.098.167-.139.25-.25.347-.431.236-.389.431-.806.653-1.194.042-.084.153-.153.236-.181a.474.474 0 0 1 .028.277l-.167.75c-.069.306-.444.778-.75 1.015-.055.097-.111.264.083.277.792.042 1.264-.056 1.958-.417.722-.375 1.194-.681 1.514-.639.222.028 1.305.348 1.402.417-.055.111-.139.152-.208.222-.111.098-.639.39-.875.584-.375.306-.5.444-.431 1.069.042.277.083.541.153.806.028.083.097.208.153.222.083 0 .181-.069.236-.139.306-.375.598-.777.903-1.152a.751.751 0 0 1 .181-.111c.018.063.023.13.014.194-.069.444-.305.792-.583 1.125l-.194.236c-.236.347-.25.402-.014.735.292.417.333.875.236 1.32-.07.319-.167.805-.236 1.277l-.819.431c-.444.264-.653.389-.847.556-.319.277-.375.5-.375.569 0 .069.069.111.208.181.125.069.236.111.361.152.417.125 1.181-.027 1.319-.472.042-.098.097-.292.097-.473.139.028.264.028.306.153.153.458.292.777.583 1.083-.042.125-.097.222-.222.417-.181.291-.333.541-.583.485-.083-.014-.194-.041-.306-.041-.181 0-.375 0-.347.333.042.431.097.625 0 1.069-.056.236-.125.5-.361.486-.597-.042-.973-.473-1.542-.458-.486.014-.819-.07-1.069-.195-.306-.152-.514-.319-.653-.402-.625.098-1.708.292-2.417.417-.903.152-1.514.25-2.611.472-.625.125-1.319.264-1.944.403-.222.056-.208.194-.25.416-.111.515-.306 1.015-.389 1.528-.014.083.097.181.152.264.056-.056.139-.098.195-.167.125-.181.208-.389.347-.556.236-.264.875.015.986.361.083.223-.208.319-.18.556.014.208.305.403.305.667 0 .222-.083.375-.125.5.875.556 1.083 1.027 1.111 1.75.028.222.028.333.153.458s.319.306.403.417c.403.472.778 1.222 1.055 1.306.139.041.5.069.764.041l.056.153c-.083.208-.333.472-.556.541-.639.209-.958-.75-1.306-1.291-.181-.278-.361-.542-.542-.723-.278.306-.736 1.542-.708 2.125.014.236.208.625.25.75.139.348.347.792.708 1.389.222.361.639.486 1.042.64.347.125.597.181.958.083.181-.042.25-.056.333-.125l-.014-.708c.028-.806.153-1.515.25-2.306.083-.598.097-.848.139-1.417 0-.306.223-.806.598-1.069.402-.277.569-.652.542-1.125a.887.887 0 0 1 .097-.458c.125-.265-.125-.265-.375-.306-.278-.042-.347-.153-.208-.403.264-.431.639-.806.931-1.222.194-.306.278-.514.347-.694-.069-.361-.042-.903.319-.917.403-.042.917-.056 1.278 0 .389.083 1.014.375 1.153.527.04.088.059.184.056.281 0 .097.208.167.611.569.305.292.611 1.098.083 2.348.264.152.25.402.222.68-.014.236.056.278.278.361.278.098.431.264.667.848.208.541.805 2.014 1.167 5.597-.069 1.125-.264 1.959-.486 2.875.236 1.723.514 3.834.722 6.736.181 2.736.223 4.139.278 5.264.486.042.639.14.736-.264.028-.125.056-.264.097-.389a.56.56 0 0 1 .167-.194.5.5 0 0 1 .208.166l.292.875c.07.25.139.417.236.653a.65.65 0 0 0 .194.194c.083-.014.139-.027.194-.083.042-.111.07-.265.083-.375.028-.292.028-.515.028-.765 0-.125.069-.208.125-.277.09.021.17.076.222.152.153.334.292.695.431 1.015.056.139.125.25.208.347.083 0 .167-.027.181-.111.056-.291.069-.805.056-1.208-.069-.236-.167-.486-.208-.694-.014-.069.042-.181.097-.236a.577.577 0 0 1 .181.098 15.66 15.66 0 0 1 1.375 1.806c.056.056.097.152.153.181a.711.711 0 0 0 .277.039.405.405 0 0 0 .083-.277c-.014-.111-.153-.25-.153-.473 0-.027.028-.111.097-.236.153.028.292.084.347.167.194.208.319.375.431.556.125.208.167.306.264.486.08.068.176.115.278.139a.503.503 0 0 0 .083-.333c-.014-.111-.153-.375-.181-.486l.083-.083c.139.027.292.11.389.222.083.083.181.25.306.444.167.264.444.486 1.056.569.014.055.042.124.042.18-.083.056-.222.125-.597.194-.639.125-1.444.14-2.333.042a2.7 2.7 0 0 0-1.708.375c-.361.208-.75.181-1.181.167-.833-.042-1.681-.042-2.528-.056-1.486-.028-2.069.166-3.556.319-.569.057-.75.084-1.111.084-.653 0-2-.333-2-.75 0-.291.167-.527.167-.681 0-.181-.042-.235-.208-.277-.153-.028-.305-.056-.458-.069-.806-.042-1.598-.014-2.361.139-.431.083-.875.181-1.306.25-1.097.167-1.681-.014-2.25-.473-.389-.305-.542-.444-.805-.847-.473-.694-1.348-1.417-2.223-2.111-.93-.75-2.111-2.097-2.847-3.027-.167-.194-.458-1.14-.556-1.417-.069-.194-.222-.764-.139-1.223.111-.097.25-.208.361-.222.264-.042.667-.069 1.055-.223.125-.056.292-.166.361-.277.028-.056.028-.098.028-.153-.056-.041-.125-.083-.181-.069a3.602 3.602 0 0 1-1.097 0c-.194-.027-.417-.11-.5-.208.111-.139.194-.236.306-.306.625-.125 1.111-.264 1.458-.556a.349.349 0 0 0-.042-.181c-.403-.027-.722-.027-1.181-.139-.139-.027-.333-.152-.444-.264.125-.153.181-.208.333-.278.278-.097.43-.166.722-.347.25-.153.472-.278.542-.403 0-.055 0-.11-.014-.194-.417-.014-.931-.041-1.417-.152a1.131 1.131 0 0 1-.167-.125.686.686 0 0 1 .181-.264c.333-.084.944-.14 1.278-.25a.493.493 0 0 0 .18-.236.605.605 0 0 0-.222-.181 7.203 7.203 0 0 1-1.208-.139c-.083-.028-.153-.125-.208-.236.083-.069.167-.139.25-.152l1.069-.223a.725.725 0 0 0 .292-.25c-.056-.111-.181-.236-.292-.25-.319-.042-.542-.111-.875-.167a1.52 1.52 0 0 1-.278-.11l-.069-.111c.097-.069.208-.139.278-.153.194-.041.472-.125.681-.181.181-.055.375-.125.403-.264a.214.214 0 0 0-.014-.139c-.292-.083-.875-.027-1.139-.111-.097-.027-.181-.125-.236-.25l.25-.139c.319-.069.667-.208.917-.348.055-.083.083-.166.111-.235a.645.645 0 0 0-.194-.098 10.395 10.395 0 0 1-.861-.292.708.708 0 0 1-.139-.235c.042-.056.139-.14.208-.153l.486-.125a3.19 3.19 0 0 0-.236-.486.481.481 0 0 0-.167-.166c-.292-.167-.681-.334-.986-.528-.556-.347-1.139-.681-1.583-1.125-.528-.527-1.042-1.139-1.167-1.916a4.064 4.064 0 0 1-.014-1.417c.056-.348.25-.723.444-1.056.07-.125.125-.236.056-.333a6.16 6.16 0 0 0-.875-.931 1.479 1.479 0 0 0-.542-.292c-.569-.152-1.083-.181-1.417-.25-.403-.097-.681-.125-.875-.097-.153.139-.32.36-.431.639.097.375.278.958.292 1.431.403.041.889.181 1.389.472.402.25.5.39.652.89.348 1.11.445 2.541.681 4.069.222 1.444-.542 2.652-2.014 2.708-.333.014-.653.014-1.014-.098-.305-.097-.555-.264-.653-.569-.139-.416-.292-.847-.417-1.264-.097-.333-.208-.722-.292-.902-1.042.264-2.139.61-3.264 1.152-.972.473-1.778.917-2.805 1.333-1.973.806-4.139 1.306-6.083 1.306-1.028 0-2.167-.208-2.958-.527-.708-.278-.958-.569-1.125-1.458-.097-.459-.125-1.375-.028-2.292.083-.75.208-1.264.722-2.667.223-.611.514-.902.986-1.139.388-.176.792-.31 1.208-.402.5-.111.847-.14 1.361-.111.306.014.708.069.986.181.556.208.639.666.667 1.222 0 .319.014.653-.014.973-.028.264-.014.361-.014.472.708.098 2.181.056 2.875-.097.583-.125.819-.223 1.875-.709.724-.322 1.711-1.057 2.849-1.655zm22.292 12.445c.069.139.222.833.222 1.083 0 .57-.042 1.084-.111 1.973-.097 1.152.028 2.319-.125 3.458-.069.556-.208 1.431-.167 2.194.014.306.056.39.236.431.555.125.93.181 1.208.181.861 0 1.417-.389 1.347-.861-.042-.25-.139-.541-.208-.944-.153-.985-.167-1.333-.195-2.264l.222-.014c.32 1.306.583 1.944.681 2.625.111.611 0 1.667.125 2.208 1.431.153 3.139.014 3.667-.097.125-1.167.097-2.375-.417-2.819a14.862 14.862 0 0 0-1.139-.861c-.667-.459-1.25-1.264-1.528-1.694-.611-.973-.778-1.278-1.319-2.223-.5-.875-.833-1.625-1.181-2.139a3.971 3.971 0 0 0-.5-.653c-.444-.139-.819-.18-1.292-.235-.611-.069-1.014-.14-1.361-.515-.292-.305-.417-.541-.236-.944.098-.208-.027-.36-.194-.541-.167-.223-.125-.459.097-.625.417-.403 1-.806 1.611-.944a.274.274 0 0 0 .111-.028c-.027-.125-.069-.361-.111-.486-.278.042-.583.125-1.139.125-.777 0-1.472-.319-1.75-1.333-.111-.361-.569-1.389-.694-1.848-.083-.277.014-.625.139-1.014-.236-.306-.445-.639-.653-.916-.417-.181-.917-.361-1.25-.765-.139-.166-.208-.181-.333-.097-.111.083-.139.208-.292.347-.153.125-.458.14-.75.015-.278-.111-.417-.403-.403-.681.028-.375.208-.694.042-.848-.292-.306-.556-.652-.208-.889.097-.083.305-.069.43-.139a.926.926 0 0 0 .445-1.042c-.07-.306-.236-.444-.542-.473-.444-.027-.639-.25-.639-.541 0-.375.333-.528.625-.459.125.028.292.084.389.181.028.14.097.334.208.319.5-.055.889-.583.889-1.069 0-.166-.111-.25-.43-.181-.598.098-1.348.32-2.083.57-.403.139-.458.458-.236.833.07.083.125.194.181.277.097.153.056.265-.083.348l-.195.139c-.222.167-.25.361-.111.611.043.083.1.158.167.222.167.153.167.278.014.459-.194.208-.25.458-.152.764.069.208.236 1.417.236 1.652-.014.625.111 1.25.069 1.834-.027.431.195.806.598 1.264.444.5.777.944 1.375 1.527a3.639 3.639 0 0 1 1.181 2.486c.028.473.25.639.694.875.945.264 1.264.792 1.375 1.514.195 1.278-.43 2.515-1.583 2.403-.583-.056-.875-.417-.875-.723 0-.319.167-.652.444-.75a.728.728 0 0 1 .25.015c.021.062.03.128.028.194 0 .083-.111.139-.153.306-.028.11-.028.333.083.472.125.153.333.208.555.139.264-.083.445-.306.57-.541.528-.959.25-2.098-.764-2.348-.319-.083-.792-.139-1.083.042-.639.389-1.181.611-1.708 1.097a.409.409 0 0 0-.125.306c.014.944.028 1.611.083 2.542.069 1.417.194 2.806.361 3.792.069.402.167.625.222.764.056.125.167.222.25.333.111-.083.194-.167.306-.277.167-.265.306-.528.472-.778l.125-.041c.056.041.153.097.153.152l-.057.637c-.014.236-.028.473.014.694.028.125.167.236.264.319.069-.097.153-.208.208-.319.056-.139.069-.25.111-.416a.36.36 0 0 1 .236-.125c.05.064.079.141.083.222-.014.306 0 .584.028.75.014.111.125.139.222.167l.167-.25c.097-.194.194-.361.306-.514.097-.125.375-.39.583-.556a.449.449 0 0 1 .306-.069.55.55 0 0 1-.028.306c-.236.458-.361.722-.458 1.069-.07.25-.125.416-.139.5.042.014.194-.015.264-.028.055-.014.139-.041.167-.181.028-.11.056-.152.069-.208.042-.098.125-.152.208-.208a.492.492 0 0 1 .222.222c.069.139.083.334.194.459.069.083.111.11.222.18.056 0 .125-.027.195-.11.069-.098.139-.431.222-.542.111.014.18.056.264.152.069.084.097.265.194.348.111.083.958.111 1.111.098 0-.125-.028-.459-.028-.5-.014-.986 0-1.778.069-2.75.069-1.028.181-2.084.236-2.986.042-.736.139-1.875.194-2.764l.183-.029zm13.945-19.028c-.222-.042-1.153-.098-1.403-.098-.208 0-.764 0-.778.292 0 .083.111.236.236.319.68.458 2.583.542 3.361.417a1.542 1.542 0 0 0-.069-.57c-.194-.569-.889-1.069-1.528-1.277-.653-.208-1.514-.139-2.069-.069l-.125-.348c.222-1 .194-1.931.056-2.666-.083-.417-.195-.611-.417-.944-.125-.181-.278-.167-.444-.028a3.055 3.055 0 0 0-.417.458c-.639.792-.611 1.306-.5 2.486.069.056.153.111.361.111s.306-.098.333-.375l.111-.958a.789.789 0 0 1 .055-.209c.097.028.264.14.278.209.014.11.014.222 0 .347-.056.694-.236 1.125-.305 1.459.042.069.486.264.417.444-.056.139-.75.319-1.222.36-.264-.36-.542-.694-1.153-.944-.278-.11-.583-.208-.347-.389l.361-.152c.653-.265.444-.64.417-1.278-.028-.236-.125-.306-.347-.291-.32.014-.542.041-.806.18-.195.098-.292.195-.444.348-.278.264-.486.598-.764.848-.069.069-.208.041-.319.041.014-.083.056-.166.083-.264.181-.486.348-.986.528-1.486.07-.194.153-.375.361-.333 1 .236 2.028.042 2.736-.667.292-.319.292-.472-.083-.736-.639-.485-1.347-.694-2.153-.472-.181.056-.292.152-.431.306-.083.097-.153.264-.125.319.042.069.139.069.236.056.236-.042.486-.069.75-.098.083 0 .18-.014.25-.014.083.014.153.098.222.139l-.222.111-.514.139c-.375.098-.764.194-1.125.306-.181.056-.264.014-.292-.181-.056-.333.028-.597.292-.819.431-.375.778-.806.875-1.389.056-.319-.208-.792-.347-1.069-.014-.069.014-.125.028-.181.361.083.875.333 1.181.556.236 1.014.861 1.722 1.833 2.027.333.111.667.236 1.014.334.319.097.556.014.542-.334l-.016-.459c.278-.125.597-.223.667-.208.528.069 1.069.333 1.625.514.097.041.194.111.208.222-.083.055-.208.083-.292.055-.402-.069-.805-.181-1.194-.277-.25-.056-.458.056-.5.291.167.306.931.653 1.222.765.403.152 1.945.333 1.931-.084a5.374 5.374 0 0 0-.181-1.235c-.097-.348-.403-.542-.722-.625-.611-.167-1.069-.236-1.889-.236h-.181c-.167 0-.458.097-.75.236-.014-.153-.042-.292-.069-.445-.153-.625-.444-.777-.917-.93.028-.181.028-.306.028-.5.417-.237.917-.626 1.112-.96-.167-.152-.472-.236-.625-.291-.625-.223-.694-.473-1.125-.653-.389-.167-.694-.236-1-.25-.32-.014-.75.069-.834.194-.056.084-.014.209.181.348.278.208.861.375 1.153.569.041.027.083.083.111.111-.056.027-.098.056-.139.056-.389-.042-.764-.111-1.139-.32-.208-.11-.278-.208-.431-.264-.292-.097-.333-.014-.514.306-.139.236.028.361.222.473.667.375 1.167.583 2.014.681.083.083.111.25.139.43-.34-.033-.677-.074-1.014-.125-.214-.04-.423-.1-.625-.18-.556-.265-.847-.459-1.403-.709-.292-.139-.583-.236-.889-.347-.153-.069-.208-.167-.042-.265.833-.5 1.639-1.125 2.486-1.583.125-.069.319-.042.472-.014.404.083.543.208.96.333.236.084.472.153.514-.069.125-.611.319-1.069.5-1.333.375-.569.903-.861 1.597-1.306C51.347.903 52.208 0 52.513 0c.833 0 1.681 1.514 1.848 2.084.111.416-.57.764-.111.764.389 0 .75.069.75.402 0 .584-.167 1.181-.472 1.611-.305.43-.639.889-1.069 1.181l.028.152c.721.542 1.513.931 1.513 1.75 0 .431-.125.736-.375.959-.194.166-.347.333-.333.583.028.569.07.889.028 1.444-.028.375-1.167.444-1.319.611.278.917-.056 2.389-.319 2.833.083.167.153.292.236.431 1.153.806 1.306 1.542 1.472 2.181-.319.306-.847.569-1.027.569-.736 0-2.389-.556-2.723-.611-.125.236-.055.444.111.917.153.417.431.708.431 1.098 0 .18-.028.485-.556.569-.792.125-1.667-.167-2.486-.681-.152-.084-.277-.181-.43-.25-.25-.139-.569-.042-.653.25l-.167.556c-.097.306-.25.333-.667.25-1.181-.25-1.736-1.528-1.736-2.653 0-.014.055-.111.097-.166.056.041.167.083.18.139.042.208.083.431.153.639.097.306.167.598.348.889.222.431.5.667.972.723.097 0 .222-.181.333-.375.25-.528.486-.889.403-1.514-.028-.209-.097-.515-.25-.709-.069-.097-.194-.166-.333-.291.07-.098.167-.209.25-.181.528.194.917.181 1.236.014.208-.111.306-.25.444-.431.591-.15 1.19-.27 1.792-.361.833 0 1.583.111 2.208.389l-.042.138zM20.416 36.334c.445 0 .986.222.972.708a1.19 1.19 0 0 1-.097.236.274.274 0 0 1-.111-.028c-.167-.361-.431-.569-.875-.486a1.914 1.914 0 0 0-1.028.584c-.167.181.194.291.417.416.153.084.403.223.486.306-.056.153-.222.417-.236.528a3.731 3.731 0 0 1-.611-.278c.111-.194.208-.319.25-.347.083-.056.43.027.555.069-.014.389-.611 2.014-.292 2.069.792.139 1.861-.958 1.972-2.514-.028-.569.292-.834.903-1.042.722-.292 1.069-.611.944-1.402-.055-.39.167-.278.389-.598.083-.111.181-.208.236-.264.042.111.125.375.097.486-.167.639-.042 1.139.278 1.722l.597 1.542c.139.152.264.027.403.181.514 1.041 1.097 2.583 1.875 3.25.639.527 1.32 1.458 1.931 2.014.347.319.597 1.111 1.042 1.264.32.111.306.278.264.569-.056.348.083.417.222.417.208-.027.417-.083.639-.098.181-.014.32.125.306.292 0 .069-.167.194-.292.194-.236.028-.472-.014-.708-.014-.083.014-.167.056-.25.083.028.098.056.194.125.25.389.209.667.236 1.056.319.069 0 .125.056.208.084-.028.069-.111.222-.181.25a1.156 1.156 0 0 1-.431 0c-.347-.069-.667-.223-.986-.361-.111-.042-.195-.167-.292-.236-.083-.041-.181-.056-.278-.083 0 .111-.042.208-.028.306.014.083.083.152.111.222.028.07.083.209.056.25-.028.042-.25.181-.319.14-.278-.125-.5-.445-.764-.598-.333-.208-.639-.208-.958.014-.319.223-.611.417-.917.598-.388.25-.791.652-1.249.652-.25 0-.875-.389-1.153-.472-.528-.167-.694-.181-1.25-.306-.458-.111-.875.069-1.347.222-.583.181-1.208.25-1.833.361-.361.069-.764 0-1.139-.014-.556-.014-1.097-.069-1.653-.056-.361 0-.764.069-1.111.181-.161.054-.33.083-.5.084-.25 0-.486-.069-.723-.222-.25-.153-.5-.209-.792-.153-.264.056-.778.153-.986-.041-.264-.265-.889-.792-1.236-.723-1.111.194-1.639.819-2.722.527-.764-.194-1.264-.375-2.014-.125-.18.07-.667-.041-.861-.014-.278.042-.375-.014-.333-.291l.028-.153c.042-.292-.236-.5-.514-.402-.305.097-.486.416-.778.57-.528.25-1.028.181-1.597-.042-.389-.167-.792-.097-1.167.098-.236.125-.625.694-.889.694-.097 0-.236-.153-.278-.278v-.277c.097-.208.458-.486.611-.569.68-.319 1.375-.403 2.125-.278.333.056.694.098 1.014-.041.25-.111.514-.125.75-.25.417-.223.778-.417 1.25-.25.347-.153.528-.265.708-.528.083-.416-.07-.861.042-1.264.097-.375.25-.833.375-1.194.069-.181.194-.167.319-.153.333.5.736.959.542 1.417-.139.319.583.542.458.861-.111.236-.056.389.181.417.111.014.139.014.194.014.208 0 .222-.139.208-.403-.042-1.097-.208-2.083-.694-3.083-.111-.236-.195-.473-.306-.708-.222-.459-.181-.931-.014-1.403l.32-.944a1.79 1.79 0 0 1 .958-1c.056-.014.208.056.25.125.681.958.931 2.125.597 3.278-.097.347-.167.708-.236 1.083-.014.083.014.181.028.277.069-.056.153-.11.208-.181.333-.514.681-1 .945-1.541.264-.528.694-.736 1.236-.848.583-.111.75-.041.597.528-.097.333-.194.666-.305.972-.167.528-.5.959-.986 1.194-.208.111-.5.348-.708.473-.08.052-.155.112-.222.181-.111.152-.139.139-.014.291.111.14.278.056.417-.027.278-.208.542-.361.819-.542.264-.181.556-.36.847-.485.208-.098.278-.015.264.222-.028.292-.069.667-.347.764-.306.111-.722.153-.986.292a1.845 1.845 0 0 0-.472.389c-.181.278-.181.473-.333.764-.027.07 0 .181.014.278.083-.028.181-.028.25-.069.361-.264.556-.556.917-.834.292-.222.347-.194.458.153.053.12.134.225.236.306.111-.069.236-.139.32-.25.083-.098.153-.25.194-.375.083-.264.514-1.417.764-1.723.07 0 .167.056.222.084.098.222-.027.958-.014 1.11.014.444.153.542.569.334.306-.153.597-.319.903-.486.056-.042.125-.083.181-.083.097 0 .208.041.264.097.028.028 0 .153-.028.208-.111.153-.264.278-.361.445-.056.097-.042.25-.056.375.097 0 .222.014.319-.028.25-.069.486-.181.722-.292.333-.139.667-.097 1.028.015.347.11.695.194 1.028.291.264.069.569-.056.806-.166.514-.25.944-.417 1.472-.569.722-.195 1.292-.598 1.833-1.056.125-.125.306-.194.444-.319.111-.098.208-.528.222-.667.083-.375-.056-1.25.014-1.639.042-.098.125-.306.18-.403 0 0 .139.042.167.042.042.139.111.361.111.472-.028.667-.042 2.153-.111 2.806 0 .153-.264.39-.417.444-1.167.431-2.347.875-3.528 1.223-.542.139-1.125.056-1.68.069-.445 0-.889-.069-1.32-.042-.347.028-.833.348-1.194.403-.972.152-1.806.083-2.764.264-.889.167-1.736.403-2.583.639a1.355 1.355 0 0 0-.527.259c-.069.055-.083.152-.111.222.097.042.18.111.278.098.208-.028.389.041.611.014a28.87 28.87 0 0 1 1.583-.194c.111 0 .264.083.361.152.264.181.528.236.82.167.319-.069.597.014.875.222.486.39.611.403 1.167.098.431-.236.903-.236 1.375-.208.569.041 1.153.083 1.722.166.431.056.861.167 1.292.223.792.083 1.458-.125 1.972-.764.264-.348.528-.681.75-1.015.167-.235.361-.389.639-.389.597-.014 1.208-.152 1.806-.111.333.028.486.334.486.528-.014.194-.097.319-.319.306-.45-.023-.9-.06-1.347-.111-.458-.042-.833.098-1.111.444-.153.167-.111.278.111.333.097.015.208.056.319.07.236.027.347.139.417.36.042.14.333.278.82.306.625.042.944.042 1.486-.139.222-.069.375-.333.528-.527.361-.515.597-.64 1.236-.515.444.084.75-.389 1.139-.36.472.041.264-.625.083-.945a5.103 5.103 0 0 0-.639-.93c-.639-.473-1.153-1.417-1.708-2.111-.417-.514-.903-.709-1.264-1.334a30.137 30.137 0 0 1-.819-1.514c-.153-.291-.417-.806-.597-1.083-.167-.278-.347-.569-.569-.806-.306-.306-.945-.098-1.264.069-.083.042-.264.125-.375.264.917.778.958 1.848.639 2.64-.097.25-.181.235-.445.139-.236-.084-.5-.194-.722-.292-.153-.083-.292-.042-.458.056-.695.417-1.542.986-1.681.848-.278-.278-.722-1.125-.694-1.542.014-.361.125-.653.25-.848a6.685 6.685 0 0 1-.875-.583l-.014-.306c.581-.571 1.358-1.098 1.969-1.098zm-17.43-8.111c.069.556.305 1 .833 1.208.764.319 1.778.5 2.625.514a15.87 15.87 0 0 0 3.319-.277c1.723-.319 3.806-1.083 5.361-1.875 1.042-.528 2.097-.958 3.25-1.236 1.222-.292 2.319-.402 3.611-.097.527.125.639.125.569-.265-.042-.25-.111-.5-.153-.764-.125-.889-.097-1.722-.431-2.486-.069-.166-.222-.319-.486-.458a2.91 2.91 0 0 0-.861-.264 6.007 6.007 0 0 0-1.806 0c-1 .152-1.792.389-2.722.833-.87.43-1.722.893-2.556 1.389-1.208.75-2.597 1.098-3.778 1.098-.889 0-1.472-.028-2.361-.125-1.206-.126-2.4-.334-3.47-.959-.236-.125-.375-.084-.472.166a4.656 4.656 0 0 0-.208.681c-.195.792-.417 1.875-.264 2.917zm41.417 9.791c-.306.042-.944.125-1.319.14a1.75 1.75 0 0 1-.361-.042c.056-.111.097-.152.153-.181.458-.236.944-.444 1.278-.708.181-.139.153-.278.097-.403-.625.278-1.208.403-1.875.515-.042 0-.069-.042-.097-.07.514-.389 1.194-.694 1.569-1.027.25-.208.069-.264-.014-.348-.542.195-1.083.361-1.653.528-.056.014-.181-.014-.264-.028v-.069c.056-.041.139-.125.208-.152.528-.25 1.181-.708 1.583-1.042l-.028-.139-.18-.015c-.444.069-1.417.208-1.944.264l-.167-.042a.235.235 0 0 1 0-.139c.417-.194.75-.417 1.056-.736.111-.125.083-.235.056-.291-.083.041-.25.097-.361.139-.403.097-.473.097-1.056.139l-.028-.056c.014-.056.042-.097.083-.166.403-.153.486-.292.708-.431.139-.084.431-.292.5-.403.028-.041.014-.152-.014-.181-.486.153-.806.236-1.236.292a.623.623 0 0 1-.222-.042c.042-.097.056-.166.111-.194.583-.291.889-.416 1.292-.666.125-.084.236-.265.292-.361l-.042-.056-.222.069c-.681.264-1.014.319-1.208.361-.083-.014-.139-.069-.222-.139.056-.07.111-.14.167-.167.764-.292 1.306-.556 1.681-.792.403-.236.792-.583.958-.722.222-.194.417-.403.5-.569l-.069-.111c-.764.514-1.098.75-1.389.931a8.13 8.13 0 0 1-1.514.708.33.33 0 0 1-.167-.056.713.713 0 0 1 .07-.152c.097-.098.375-.403.597-.709.667-.306 1.125-.472 1.625-.791.472-.292.667-.459.819-.611.056-.056.083-.208.042-.319-.472.222-1.194.625-1.833.861l-.111-.042c.028-.111.083-.208.153-.319.431-.278 1.042-.723 1.528-1.25.014-.069.042-.153 0-.223l-.292.139c-.25.125-.68.278-.972.375l-.055-.055c.027-.125.055-.223.111-.334.583-.486.861-.806 1.153-1.222.056-.084.056-.167 0-.319-.333.235-.792.375-1.153.514l-.111-.028c-.014-.125 0-.097.042-.194.431-.389.792-.694 1.056-1.139.028-.042.014-.167-.028-.25-.361.125-.625.223-1.014.319-.042 0-.083-.014-.125-.027.014-.125 0-.153.042-.25a4.11 4.11 0 0 0 .764-.89c.069-.097.056-.18.014-.25a6.25 6.25 0 0 1-.695.111c-.069.014-.167-.069-.208-.152.083-.056.194-.139.25-.167l.403-.292a.552.552 0 0 0 .111-.18c-.083-.042-.153-.084-.208-.07-.277.042-.542.07-.819.125-.611.125-.611.209-.667.39-.292 1.083-.486 1.569-.681 2.027-.083.194-.181.361-.375.444-.264.125-.208.264-.278.514-.111.5-.181.473-.389.959a2.615 2.615 0 0 1-.583.931c-.028 0-.111.014-.139 0l-.042-.694c-.055-.459-.153-.361-.222-.834-.014-.139-.014-.291-.014-.431.042-.277.097-.527.125-.806a19.31 19.31 0 0 0 .097-1.555c-.042-.028-.083-.084-.139-.125a.386.386 0 0 0-.125.18c-.083.32-.236.82-.292 1.153-.097.764.069 1.5 0 2.264-.069.681-.194 1.319-.111 2.014l.028.39c.25-.028.236-.056.583-.195.472-.18.806-.25 1.278-.666.333-.292.278-.861.403-1.319.153-.569.375-.765.597-.861.056-.014.125.014.194.027-.139.319-.208.486-.333.819-.111.292-.222.765.097.82l.236.041c.014.056.014.139-.028.181-.305.292-.542.639-1.917 1.028-.153.041-.5.458-.514.625-.028.208-.028.458.014.819.139 1.36.819 2.652 1.583 3.916.639 1.084 1.111 1.903 1.819 2.611.319.292.667.514 1.208.264.292-.139.652-.36.736-.444.055-.058.068-.154.055-.238zM25.778 18.306c.042.542-.056.681-.75.5a14.33 14.33 0 0 1-.708-.194c-.347-.098-.597-.223-.819-.486-.278-.319-.625-.319-.931-.014-.083.069-.139.181-.236.25-.056.056-.139.083-.222.125-.042-.083-.083-.181-.056-.264.069-.319.264-.556.569-.709.208-.11.472-.18.694-.25.639-.25.958-.639.958-1.389 0-.431.125-.861.125-1.306 0-.319-.111-.416-.417-.319-.528.209-1.028.417-1.556.639a.66.66 0 0 0-.375.348c-.139.277-.236.569-.375.848l-.111.139c-.042-.042-.097-.069-.139-.125l-.375-.556c-.14-.21-.288-.413-.444-.611-.236-.277-.236-.361.027-.569l.861-.75c.431-.402.597-.931.639-1.527v-.806c-.014-.361.056-.459.417-.417a2 2 0 0 1 .708.208c.389.167.778.39 1.167.598.208.125.361.306.375.569.014.306-.181.5-.472.389a8.663 8.663 0 0 0-1.306-.458c-.222-.056-.444.069-.486.277-.083.515.347.542.306.681-.111.361-.694.473-.778.806-.068.303-.068.498.21.442a3.88 3.88 0 0 0 .833-.277c.458-.236.68-.348 1.18-.556.486-.208.736-.139.806.402.194 1.306.444 2.569.625 3.834.028.153.041.361.056.528zm11.152-3.931c0-.166.014-.431.111-.694.042-.125.111-.277.195-.402.139.041.319.125.43.222a3.6 3.6 0 0 0 1.57 1.694c.236.125.472.167.652.181.07-.277.195-.736.195-1.25 0-.402-.125-.833-.5-1.208-.32-.319-.75-.667-1.111-.848a.493.493 0 0 0-.556.056c-.014.084-.014.236.042.319.18.306.611.584.792.875.042.056.042.153.042.236a.453.453 0 0 1-.236-.056 7.444 7.444 0 0 1-.639-.458 4.729 4.729 0 0 1-.694-.708c-.208-.236-.347-.236-.5.027-.389.625-.583 1.236-.667 2-.111.902.306 1.75 1.111 2.139.347.153.598.111.764-.208.181-.333.306-.611.417-.973.056-.181.056-.264-.083-.431a8.553 8.553 0 0 0-.555-.625c-.125-.125-.208-.194-.278-.222a.372.372 0 0 0-.083.236c.014.291.056.583.069.875a.553.553 0 0 1-.055.25.574.574 0 0 1-.32-.375c-.071-.193-.099-.374-.113-.652zM5.055 3.139l.542.64c.222.416.347.806.458 1.139.098.332.236.332.445.18a.774.774 0 0 0 .319-.654 2.108 2.108 0 0 0-.125-.583c-.181-.722-.056-1.333.584-1.792.208-.152.361-.389.292-.652-.098-.361-.182-.708-.32-1.042-.056-.152-.264-.194-.403-.111-.709.375-1.542 1.445-.903 2.334.028.055-.014.221-.056.319a1.682 1.682 0 0 1-.222-.208c-.388-.486-.833-.792-1.278-1.209a1.72 1.72 0 0 0-.583-.333c-.097.167-.167.514-.097 1.208.083.681.264 1.375.778 2.319.125.223.25.348.43.5.125.111.375.236.556.236a.956.956 0 0 0 .042-.556 14.497 14.497 0 0 0-.417-1.318l-.139-.389.097-.028zm47.014 2.68c.5-.097.903-.235 1.083-.306.806-.305 1.333-.819 1.514-1.694.056-.235-.083-.36-.333-.431-.125-.041-.389-.097-.528-.139-.514-.151-.611.07-.805.557-.153.375-.306.806-.708 1.125-.125.098-.542-.208-.653-.292.778-.458 1.292-1.208 1.681-2.097.083-.167 0-.333-.181-.389-.25-.084-.514-.111-.805-.084-1 .098-2.347 1-2.875 2.153-.042.097 0 .306.055.333.111.042.389.014.514-.027.069-.015.111-.111.153-.181.333-.584.875-.944 1.514-1.223.056-.027.125-.014.194-.027a.32.32 0 0 1-.042.222.83.83 0 0 1-.194.194c-.208.153-.431.292-.639.459-.222.208-.264.181-.458.416-.056.071-.056.223-.015.279.042.069.195.097.278.083l.347-.083c0 .222.264.652.389.777.139.14.292.292.514.375zm-17.222-.096c-.014.277-.111.444-.361.346-.528-.222-.848-.791-1.431-.985-.208-.07-.347.125-.375.319-.097.597-.18 1.125-.18 1.347 0 .819.431 1.264.875 1.709.125.11.125.18-.014.25-.597.333-1.195.68-1.792 1-.167.11-.375.139-.556 0-.18-.153-.236-.348-.18-.542.208-.903.361-1.833.597-2.723.361-1.389.972-1.875 1.986-2 .361-.056.639-.056.917-.056.292 0 .43.056.472.32.028.195.042.39.042 1.015zm1.361 6.18c0-.681-.542-.875-.778-1.459-.222-.569-.43-.569-.889-.152-.514.486-.833.917-1.028 1.625-.167.625-.139 1.319.028 1.958.042.194.153.417.375.348a.378.378 0 0 0 .264-.361c0-.583.056-1.139.347-1.514.125-.167.194-.209.264-.25.083.139.056.306.056.333-.083.431-.153.861-.25 1.292-.056.291-.056.444.097.708.167.264.306.292.417.111.527-.848 1.097-2.069 1.097-2.639zM7.153 13.778c-.028-.625-.181-1.153-.375-1.667-.223-.542-.556-.847-.778-.847-.208 0-.681.556-.833 1.015-.18.458-.222.875-.208 1.166.028.709.25 1.348.68 2.015.098.139.278.402.528.139.208-.236.361-.403.57-.653.249-.307.429-.752.416-1.168zM32.236 31.75c-.139-1.097-.973-1.875-1.598-2.416-.222-.181-.347-.265-.444-.292-.083-.028-.167-.042-.236 0-.056.042-.042.181-.042.292.07.694.139 1.514.222 2.208.056.583.125 1.056.223 1.639.042.264.167.333.402.208.361-.166.708-.347 1.056-.541.32-.181.514-.362.417-1.098zm10.958-10.889c-.194-.473-.5-.667-.972-.708-.167-.015-.319-.042-.542-.069l-.806-.125c-.278.041-.458.264-.625.639.014.069.042.166.097.181.153.056.444.11.486.139.056.042.236.236.278.389-.042.125-.208.264-.417.306-.278.056-.292.277-.236.569.042.278.139.514.361.806.194-.111.278-.152.417-.306.148-.14.22-.34.194-.542-.042-.597.292-1.041.708-1.444l.097.056c-.07.348-.25.598-.292.944-.083.709-.319 1.306-1.028 1.778.056.097.208.125.347.125a.775.775 0 0 0 .57-.223c.292-.264.528-.583.639-.986l.111-.347c.014 0 .083.014.097.027l.042.319c0 .14-.014.25-.028.473-.014.111-.014.264.014.375.167-.069.25-.167.347-.277.266-.612.391-1.529.141-2.099zm8.764-14.347c-.125 0-.611.015-.75.042-.111.028-.167.292-.111.333.139.098.222.167.333.209.444.041.639.041 1.139.125a.418.418 0 0 1 .25.139c-.042.042-.097.111-.181.125-.638.082-1.069.138-1.61-.181-.083-.056-.167-.139-.25-.167-.181-.069-.25.056-.194.223.097.319.361.583.833.777.389.167.764.375 1.153.361a9.76 9.76 0 0 0 1.514-.139c.264-.042.528-.194.569-.319.041-.125-.014-.417-.153-.598-.097-.11-.25-.25-.361-.36-.555-.584-.917-.959-1.75-.875-.111.014-.278.305-.431.305zm.57 6.209c0-.348-.042-.598-.139-.903-.208-.652-.736-1.083-1.375-1.139-.347-.014-.514.056-.375.375.042.111.348.431.473.694.152.319.305.639.305.917a.946.946 0 0 1-.083.375c-.208-.111-.32-.361-.361-.486-.097-.292-.111-.472-.208-.639-.083-.153-.18-.194-.236-.194-.125 0-.181.056-.194.236-.042.666.111 1.666.917 2.305.125.111.403.306.542.361.264.098.333.028.417-.208.164-.514.317-1.098.317-1.694zM6.583 9.111c-.125.5-.153.819-.139 1.098.014.36.181.652.514.805.986.473 2.028.542 3.097.486.042 0 .139-.069.139-.097-.014-.069-.042-.167-.097-.209-.056-.056-.139-.056-.236-.097-.473-.153-.973-.292-1.458-.473a.84.84 0 0 1-.306-.181c-.125-.166-.069-.347.125-.375.167-.014.347.015.514.084.292.139.542.333.833.5.097.056.208.152.319 0 .083-.14.167-.265-.014-.403l-.694-.54c-.597-.473-1.486-.695-2.597-.598zm21.555 5.306c.014.806-.083 1.597-.264 2.402-.042.111-.139.209-.236.334-.111-.111-.222-.181-.277-.306-.417-1.014-.764-2.056-.986-3.167-.042-.181-.097-.389-.125-.569-.028-.236.069-.319.278-.306.528.056.986.292 1.458.542.069.056.125.208.139.319.028.209.013.459.013.751zM4.944 18.959c-.014 0-.042-.015-.069-.028 0-.125.056-.375.069-.472.069-.334.153-.611.194-.903a1.26 1.26 0 0 0-.014-.402c-.139-.028-.472-.015-.639.069-.223.097-.32.319-.361.694-.028.25-.014.611.014.958.042.486.125.986.236 1.459.056.277.167.305.361.11l.43-.416c.375-.375.695-.736 1.014-1.153.278-.361.319-.708.208-1.056-.083-.291-.292-.402-.5-.402-.236 0-.319.181-.375.361-.097.291-.194.5-.292.708a2.728 2.728 0 0 1-.276.473zm43-1.903c.417 0 .764.083.875.125.5.181.722.403.82.583.083.167.097.25.097.334a.904.904 0 0 1-.833-.167c-.167-.125-.333-.25-.556-.347a1.523 1.523 0 0 0-.931-.07c.028.292.306.653.542.834.583.472.986.569 1.43.597.375.028.681 0 .875-.083.139-.056.194-.25.18-.417-.028-.541.014-1.11-.5-1.583-.556-.527-1.361-.514-1.903-.277-.097.041-.236.11-.305.18a.53.53 0 0 0 .209.291zM28.569 2.306h.097l-.041.194c-.097.473-.375.848-.708 1.181-.18.167-.222.431-.097.556.25.223.528.027.708-.152.375-.417.611-.931.819-1.431.264-.625.208-1.403-.097-1.917-.153-.223-.389-.25-.583-.083-.597.514-1.125 1.416-1.125 2.222 0 .125.014.348.097.389.083.041.361-.223.486-.376.166-.195.291-.389.444-.583zM39.93 24.848c.056-.042.125 0 .153.014.014.375.055.652.111 1.027.014.084.056.195.083.25a.575.575 0 0 0 .181-.125l.139-.68c.319-.959.083-1.723-.319-2.598-.069-.167-.181-.194-.347-.111-.125.056-.222.139-.125.306.097.139.083.25 0 .389-.125.25-.222.528-.361.819a2.334 2.334 0 0 0-.083.57l-.139 3.333c0 .027-.014.069 0 .097a.3.3 0 0 0 .097.167c.056-.042.111-.083.139-.125.069-.181.125-.361.167-.556.097-.541.25-.556.278-1.097.04-.555.04-1.125.026-1.68zM8.403 3.556a.486.486 0 0 1 .014-.208L9 3.431c.278.056.417.028.514-.194.153-.402.07-.777-.361-.861a2.125 2.125 0 0 0-.667-.028c-.403.055-.806.111-1.195.25-.361.125-.444.5-.18.764.417.402.819.806 1.25 1.152.361.292.777.361 1.18.278.195-.042.347-.167.347-.333a.476.476 0 0 0-.139-.334 1.225 1.225 0 0 0-.319-.194l-1.027-.375zm-.584 25.069c-.042.194-.125.348-.431.334a3.87 3.87 0 0 1-.833-.125c-.306-.084-.389-.195-.403-.306-.097-.556-.042-1.319.097-1.848.028-.083.347-.277.472-.347.403.041.722.11 1.014.18.111.07.333.403.347.445.055.18.055.375.055.555-.109.473-.249.876-.318 1.112zm31.097 16.806c.181.069.431.153.653.223.333.097.597.152.889.097.236-.041.375-.264.347-.5-.014-.208-.111-.375-.375-.444-.569-.125-1.153-.208-1.694-.402-.32-.098-.57-.084-.848.125-.417.333-.833.5-1.361.597-.111.014-.25.042-.347.125-.069.056-.097.209-.069.278 0 .083.139.181.194.181.458.027.819.027 1.25-.015.445-.029.889-.154 1.361-.265zm3.042 1.833c.472 0 .806-.083 1.125-.291.236-.153.472-.361.736-.459.181-.069.417-.097.611-.139.208-.041.417-.25.431-.416 0-.236-.195-.265-.348-.32-.444-.139-.972-.125-1.43-.235-.153-.028-.361-.028-.486.069-.361.277-.458.431-.875.736-.139.083-.569.264-.722.485-.125.153-.125.348.208.431.264.069.597.125.75.139zM26.013 10.861c0-.236.431-.611.667-.569a.26.26 0 0 1 .125.097c.042.153.069.32.097.5.028.195.083.375.194.375.486.028 1.056-.305 1.319-.722.292-.444.5-.958.736-1.444.056-.125.181-.319.333-.25.139.056.167.208.111.375-.306.916-.681 1.861-.986 2.764-.098.333-.139.348-.458.236l-1.542-.542c-.387-.125-.596-.403-.596-.82zm11.792 22.987c.028.041.125.083.208.056a.964.964 0 0 0 .361-.167c.167-.125.292-.361.292-.542l-.097-2.027c0-.056-.083-.167-.125-.167-.278 0-.611-.056-.833.069-.431.236-.792.569-1.181.875-.042.042-.069.181-.042.194.083.056.181.111.25.084.195-.069.403-.167.583-.264.125-.056.236-.14.361-.195 0 .07-.014.125-.042.167-.332.375-.582.819-1.04 1.069-.056.014-.083.111-.069.167.028.069.097.152.153.152.139-.014.417-.166.514-.235.278-.223.403-.361.681-.598.097.139.153.25.014.375-.069.083-.153.139-.236.208-.153.153-.347.292-.514.459-.055.056-.055.11-.028.152.028.042.111.069.139.056.194-.027.375-.111.528-.208.181-.125.347-.292.514-.473.014.028.111.125.097.139-.14.209-.307.417-.488.654zM13.986 10.417c-.098.847-.236 1.597-.57 2.333-.08.165-.188.316-.319.444-.139-.194-.222-.444-.25-.527l-.611-1.583a1.808 1.808 0 0 1-.111-.39c.222-.277.5-.694.625-1.027.056-.153.153-.181.292-.069.333.305.624.569.944.819zm1.333 16.056c-.069.222-.153.444-.514.639-.194.098-.514.236-.875.236-.167 0-.292-.042-.319-.194-.098-.515-.208-1-.292-1.5-.014-.125.097-.292.194-.375.32-.306.75-.39 1.181-.417.097 0 .403.125.444.208.098.472.14.889.181 1.403zm-4.069-6.029c-.333 0-.917.417-1.014.709-.014.041-.014.097-.014.139.014.458.111.902.361 1.306.153.236.278.291.514.125.389-.278.806-.556 1.139-.903.264-.264.472-.597.652-.916.111-.223-.125-.292-.347-.403-.292-.139-.611-.139-.778-.056-.167.084-.236.265-.264.403-.042.2-.103.395-.181.583-.056.111-.139.264-.25.348a1.82 1.82 0 0 1-.056-.542c.016-.209.099-.487.238-.793zm4.5 25.654a3.328 3.328 0 0 1-.472-.098c.042-.069.056-.125.125-.139.111-.014.375-.014.403 0 .528.152 1.014-.236 1.514-.306.111-.014.236-.027.361-.014.333.014.653.027 1.014-.069.153-.056.347.014.514.083.569.264 1.111.403 1.667.069.292-.194.583-.375.889-.527a.556.556 0 0 1 .445-.014c.069.055.18.235.125.347a.482.482 0 0 1-.278.292c-.819.277-1.681.5-2.583.527-.917.042-1.806-.027-2.694-.125-.194-.014-.375 0-.542 0-.044.001-.322-.013-.488-.026zM4.194 27.389c-.028.236.042.598.236.792l.083.083-.042.153c-.181.014-.722-.069-.917-.125-.125-.042.236-.236.264-.458.07-.459.182-1.223.182-1.765 0-.097-.222-.194-.222-.277a.339.339 0 0 1 .111-.181c.653.152.75.139.875.444.125.278.25.75.445 1.083a.36.36 0 0 0 .125-.069c.028-.306.014-.75.028-.958.014-.167.083-.25.264-.25.139 0 .486.014.625.042.01.031.015.064.012.097 0 .084-.111.111-.139.125-.306.111-.319.139-.458 1l-.153.986c-.013.07-.041.223-.083.32-.083.014-.236 0-.264-.069a11.577 11.577 0 0 0-.764-1.556l-.083-.014c-.042.111-.069.25-.097.389a.926.926 0 0 0-.028.208zm20.5 4.584c.016-.19.012-.38-.014-.569-.083-.236-.167-.459-.194-.667-.014-.083-.028-.167 0-.236.139-.486.236-.986.194-1.486-.037-.569-.033-1.14.014-1.708 0-.056.028-.097.042-.152.167.056.292.166.333.277a4.4 4.4 0 0 1 .097.569c.056.528.014 1.042-.014 1.556-.083 1-.167 1.931-.139 2.917.014.152.042.347.098.486.125.305.055.625-.181.972l-.153-.069c-.111-.417-.389-.986-.514-1.431-.014-.083 0-.152.111-.167.181-.042.306-.154.32-.292zm9.667-7.404c-.403-.041-.82-.402-.792-1.056-.208.292-.458.556-.681.667.014.223.57.542.945.694.222.292.375.431.653.75.167-.431.375-.791.444-1.027-.028-.653-.139-1.223-.333-1.514-.306-.348-.792-.64-1.264-.945-.236.25.069.792.639 1.111-.125.361-.111.903.458 1.223l-.069.097zm-27.833-1a9.01 9.01 0 0 0 .944-.11c.222-.056.472-.111.486-.39.014-.25-.292-.389-.486-.444-.736-.222-1.972-.181-2.931.292-.25.139-.458.277-.597.431-.222.236-.181.389-.014.514.195.138.458.291.806.374.042-.208.097-.542.152-.75.112-.167.306-.292.487-.375.375-.181.806-.208 1.347-.25.042-.014.125.069.125.111 0 .041-.056.125-.097.139a2.256 2.256 0 0 1-.375.125c-.069.014-.25.056-.25.139 0 .153.153.209.403.194zm2 5.404c-.014-.111.111-.25.125-.319.027-.154.027-.362.027-.515.014-.402-.069-1.055-.069-1.444l.222-.139c.069-.027.125.014.208.083.195.195.611.653.806.834.014 0 .042-.042.056-.056v-.292c0-.208-.042-.361-.097-.583-.069-.25-.25-.431-.056-.444l.764-.056c-.069.152-.125.264-.152.486-.042.306-.098.583-.111.875.042.444.139.889.167 1.264 0 .027-.055.069-.111.097a.66.66 0 0 1-.208-.139c-.375-.375-.639-.722-1.111-1.181a.413.413 0 0 0-.07.209c.083.291.208.61.403.889.125.167.153.222-.153.333-.168.056-.446.125-.64.098zm12.347.402c.444 0 .806-.041 1.264-.319.431-.264.611-1.167.5-1.611a.581.581 0 0 0-.152-.306c-.139-.139-.292-.097-.375.153-.028.139-.098.472-.111.625-.008.14-.027.28-.056.417a3.24 3.24 0 0 0-.986-.028c-.333.042-.986.236-.986.639-.001.374.555.43.902.43zm3.888-4.819c-.027.167.098.444.181.514.417.403.833.75 1.264 1.098.278.208.569.375.917.472.528.14.958.445 1.278.861.097.139.194.278.306.417.222.277.514.472.903.527.069.015.152 0 .222 0-.056-.235-.056-.264-.222-.431a18.806 18.806 0 0 0-2.264-1.777c-.483-.322-.956-.66-1.417-1.014-.208-.153-.375-.236-.583-.389-.14-.084-.39-.25-.585-.278zM10.361 40.375v-.014c-.139-.583-.292-1.152-.445-1.723-.014-.055-.111-.139-.125-.125-.055.042-.139.098-.167.153-.153.417-.306.833-.431 1.277a.619.619 0 0 0 0 .39c.222.61.431 1.222.667 1.833.042.083.152.139.222.194.055-.083.139-.167.153-.236l.126-1.749zm2.444-14.597c.042.11.097.25.111.389.014.097.014.167-.014.222-.014.028-.069.015-.125-.014-.292-.125-.611-.319-.875-.139-.097.069-.056.236.069.292l.819.333c.361.139.458.306.389.75-.069.417-.375.583-.736.681-.153.042-.306.056-.514.042-.028.125.014.277-.083.333-.069.042-.083.027-.153.056a3.928 3.928 0 0 1-.139-.361c-.014-.056-.139-.431-.139-.652 0-.084.028-.098.056-.125.125.041.236.208.417.389.223.069.611.139.667.069.111-.139.153-.223.153-.278 0-.097-.125-.18-.236-.235-.292-.153-.444-.209-.75-.334-.278-.11-.319-.36-.319-.597 0-.25.125-.514.528-.653.125-.041.347-.097.472-.125.03-.137.05-.276.056-.416.069-.015.194-.028.208.014l.138.359zM7 8.25c-.556 0-.917-.152-1.472-.097-.403.027-.792.208-1.181.36-.056.029-.153.071-.167.126 0 .056.125.14.181.167.208.098.347.153.542.139 1.152-.097 2.444-.222 3.597-.334.069-.083.125-.167.194-.319-.028-.056-.208-.153-.375-.181l-1.166-.208L7 8.25zm13.25 17.236c-.056.027-.125.098-.264.236a.714.714 0 0 1-.236.166l-.153-.097.25-.598c.083-.235.181-.264.403-.11l.208.166c.167.139.389.25.597.153.194-.098.083-.361-.111-.473-.306-.181-.528-.236-.889-.458-.222-.139-.319-.334-.319-.611 0-.236.167-.514.458-.542.111-.027.25-.027.417-.027.194 0 .319-.028.444-.194.097-.125.194-.194.222-.069.028.194.028.306.014.5 0 .069-.028.291-.069.416-.069-.014-.111-.014-.167-.041-.181-.292-.417-.417-.611-.39-.181.028-.278.167-.139.32.097.11.208.18.333.264.181.111.389.194.57.306.43.235.403.556.347.791-.069.292-.278.5-.625.5a1.24 1.24 0 0 1-.68-.208zm-.847-.861c0 .194-.014.292-.069.431-.139.361-.542.542-.875.542-.389 0-.611-.084-.736-.473-.069-.222-.139-.902-.181-1.152-.083-.084-.208-.125-.403-.181-.097-.028-.111-.098-.125-.181.139-.069.389-.139.57-.167.403-.069.403-.041.472.334.056.431.125.875.208 1.306.014.139.098.277.306.277.167 0 .278-.111.278-.306 0-.333.014-.722 0-1.069-.069-.083-.194-.264-.319-.389-.153-.181-.167-.236.056-.319.528-.209.569-.334.639.347.026.264.179.667.179 1zm.166 2.389c-.028.306.181 1.098.319 1.278l1.306-.306c.347-.098.542-.458.514-.792-.042-.25-.181-.389-.445-.444a1.517 1.517 0 0 0-.25-.027c-.514-.014-.972.111-1.43.264-.014.013-.014.013-.014.027zM7.916 23.667c-.167 0-.389.042-.555.083-.333.084-.5.111-.82.084-.18-.015-.486-.14-.667-.181-.194.014-.389.194-.458.472-.042.278.125.473.431.528.625.139 1.208.25 1.792.25.223 0 .25-.028.264-.209.014-.166.014-.319.014-.485v-.542h-.001zm14.903-13.306c-.222-.056-.542-.125-.819-.264-.097-.028-.153-.25-.153-.361.028-.333-.056-.667 0-1 .028-.181.125-.25.306-.208.25.056.486.11.722.194.319.125.792 1 .653 1.306-.14.278-.39.32-.709.333zm-5.375 15.25c-.056.098-.167.181-.264.25-.306.208-.861.333-1.25.583-.181.125-.097-.319-.111-.485l-.194-1.042c-.028-.167-.194-.417-.333-.569-.111-.125.208-.181.361-.223.194-.069.431-.139.611-.194a.611.611 0 0 1 .223.028c0 .041.014.083-.014.11-.306.223-.278.319-.236.611.042.278.042.583.055.819.042.111.111.264.195.361.18-.056.389-.194.389-.25l.042-.598c.056-.069.139-.125.195-.166a.558.558 0 0 1 .111.152c.095.225.137.363.22.613zm1.111-6.388c-.055-.07-.167-.125-.194-.223-.125-.402-.25-.819-.348-1.236-.027-.166.111-.264.264-.235.569.125 1.111.25 1.667.402.181.042.181.181.069.306-.361.375-.75.694-1.25.917l-.208.069zM42.486 4.236c-.028-.444-.445-1.292-.639-1.542-.25-.319-.556-.347-.833-.056-.097.098-.18.181-.25.278-.277.347-.25.458.167.667.291.126.61.223.832.417.208.181.528.556.625.611l.098-.375zM12.903 40.403a2.644 2.644 0 0 0-.847.75c-.181.347-.389.666-.569 1-.07.166-.181.541-.223.791l.111.111c.222-.083.778-.556.819-.597.472-.473.583-.903.847-1.834.014-.027.042-.111.042-.111l-.18-.11zM53.93 2.125c-.25-.527-.722-1.222-.917-1.472-.25-.319-.375-.348-.652-.056-.09.085-.175.178-.25.277-.278.348-.445.778.014.848.389.056.917 0 1.167.166.236.153.445.306.542.361l.096-.124zM6.722 27.139c-.069.681-.056.681-.056 1.153 0 .264.125.264.361.277.208.015.278-.181.319-.431l.139-.944c.042-.306.055-.485-.125-.514-.347-.041-.61.168-.638.459zm3.639-12.583a3.779 3.779 0 0 1-.875-.306c-.473-.25-.917-.75-.848-1.208.042-.223.167-.278.348-.181.042.027.097.056.125.083.277.278.542.569.792.848.208.208.375.458.458.764zm3.486 11.055c.014.194.167.736.222 1.056.028.167.069.292.306.264.319-.042.431-.181.389-.431-.042-.291-.111-.583-.167-.875-.056-.291-.181-.444-.431-.431-.263.029-.347.125-.319.417zM27.68 8.042c-.194.361-.361.708-.597 1.014-.181.25-.458.417-.708.625-.056.028-.139.028-.208.028.014-.07 0-.167.042-.223.25-.389.486-.764.75-1.125.111-.152.236-.319.347-.444.056-.069.167-.069.264-.069.027 0 .068.096.11.194zm18.681 9.667c0 .222-.042.43-.111.639l-.056.027c-.014-.069-.056-.181-.181-.458-.125-.278-.43-.792-.68-1.319-.028-.069-.069-.153-.083-.236-.014-.083.167-.139.25-.111l.319.125c.194.43.375.833.542 1.333zm2.028-15.431c.042.014.152.041.236.11.139.111.153.25-.028.32-.444.208-1.181.597-1.653.777-.083.042-.194.056-.153-.111.084-.29 1.209-1.096 1.598-1.096zM32.458 22.514c-.306 0-.57.236-.57.486.014.264.361.556.667.556.278 0 .472-.194.472-.458.014-.348-.222-.584-.569-.584zM7.916 46c-.069 0-.18.209-.292.223-.361.027-.5.056-.5.222 0 .209.111.319.292.265.486-.153.764-.167 1.292-.084.042 0 .111 0 .125-.014.097-.098.167-.195.25-.293-.083-.069-.153-.166-.25-.194A4.069 4.069 0 0 0 7.916 46zm32.792-26.791c-.125.069-.222.152-.181.291l.083.223c.222-.042.458-.056.68-.042.306.098.806.208 1.125.264.07.015.167-.069.222-.139.014-.014-.042-.069-.069-.125-.306-.25-.764-.417-1.236-.431l-.624-.041zM20.194 9.792c-.208-.083-.5-.208-.764-.333-.042-.028-.069-.167-.028-.223.167-.25.347-.486.528-.708.083-.098.167-.084.208.041l.389.944c.07.181-.014.265-.333.279zM10.18 19.153c.194-.042.278.069.25.235-.014.098-.042.14-.194.209a3.29 3.29 0 0 1-.778.125 4.129 4.129 0 0 1-.917-.069c-.194-.028-.305-.069-.333-.111a.357.357 0 0 1 .208-.153l1.764-.236zm5.348-14.944c-.056.014-.125.069-.167.041-.486-.277-1.195-.652-1.639-.944-.028-.027-.042-.097-.069-.152.056-.015.111-.056.167-.042.361.125 1 .319 1.361.458.235.111.305.319.347.639zm7.583 10.875c.055.083.111.166-.042.416-.25.389-.319.792-.486 1.334a1.77 1.77 0 0 1-.167.319c-.055.056-.139.069-.208.11-.014-.069-.056-.152-.042-.208.07-.306.181-.597.278-.902.069-.236.139-.486.222-.736.07-.194.222-.292.445-.333zm18.18-5.5a9.053 9.053 0 0 1-1.944-.681.374.374 0 0 1-.139-.153.485.485 0 0 1 .236-.027c.625.152 1.208.319 1.833.486.083.027.125.055.25.222a.54.54 0 0 1-.236.153zM33.722 21.25a.63.63 0 0 0-.278-.347c-.097-.056-.264-.028-.375.056a1.714 1.714 0 0 0-.292.264c-.139.194-.056.389.167.541.181.14.389.125.514-.055.111-.14.208-.236.264-.459zm-12.264-9c-.07.139-.083.278-.181.389-.25.292-.528.584-.806.875-.056.042-.153.028-.236.042-.014-.083-.042-.181-.014-.222.125-.223.278-.445.431-.64.153-.208.333-.402.5-.597.042-.042.139-.069.194-.042.042.029.07.098.112.195zM10.93 9.694c-.083-.069-.167-.138-.222-.221-.25-.389-.528-.779-.764-1.181-.083-.139-.181-.292-.181-.403 0-.055.153-.166.236-.235a.43.43 0 0 1 .167.152c.139.278.264.597.389.861l.375.736c.028.083.042.152.056.25l-.056.041zm-.417 6.125l-.417-.181c-.306.056-.556.195-.903.236-.11.014-.222.014-.333 0-.125-.014-.278-.083-.32-.139.056-.111.25-.223.542-.277a7.785 7.785 0 0 1 1.542-.042l-.111.403zm37.667-7.93c.083.028.167.07.222.111l1.083.806c.085.085.135.2.139.32-.069 0-.181-.014-.236-.027-.472-.236-.958-.417-1.264-.875-.055-.085-.069-.155-.083-.224 0-.027.097-.083.139-.111zM21.055 9.334l-.125.18c-.042-.055-.111-.11-.139-.18-.083-.195-.083-.403-.111-.598-.056-.473-.028-.723.25-1 .111-.125.208-.056.208.069.015.584-.013.945-.083 1.529zm-6.93-1.695c.028.056.069.153.083.209l.319 1.514c.028.125.014.292 0 .417 0 .041-.042.097-.069.139-.042-.042-.125-.056-.139-.098-.069-.277-.153-.527-.208-.791-.07-.32-.111-.626-.167-.945-.028-.167-.028-.348.181-.445zm31.583 6.736c.181.084.417.292.569.403.208.166.431.36.611.556.056.055.028.208 0 .319-.069-.028-.152-.042-.208-.084-.375-.235-.722-.5-1.069-.735-.042-.042-.056-.306-.083-.361a.37.37 0 0 1 .18-.098zm-21.07-9.666c.223 0 .5.027.708.083a.413.413 0 0 1 .153.152c-.027.056-.083.14-.152.167-.319.125-1.056.125-1.361-.056a.902.902 0 0 1-.153-.194l.208-.111c.056-.027.528-.041.597-.041zm9.084 1.86c.306.473.431.917.556 1.417 0 .027-.014.042-.014.111-.069-.042-.111-.056-.139-.084-.347-.347-.611-.735-.736-1.235-.042-.111-.028-.209.111-.292a.626.626 0 0 1 .222.083zM27.93 38.444c.361-.208.458-.36.778-.556.125-.083.111-.097.042-.222-.069-.139-.139-.139-.319-.098-.347.125-.486.209-.833.348-.153.056-.208.125-.056.236l.388.292zM17.028 5.431c.181-.125.361-.208.597-.333.222-.111.528-.236.778-.306.096-.01.191.02.264.083l-.167.153c-.361.264-.75.458-1.097.681a2.488 2.488 0 0 1-.361-.07.261.261 0 0 1-.014-.208zM5.903 14.556a11.035 11.035 0 0 1-.153-.944 2.336 2.336 0 0 1 0-.625c.028-.098.097-.181.194-.277.097.083.181.152.194.235.098.515-.055 1.111-.097 1.598-.041.013-.097.013-.138.013zm24.25-11.237c.319-.264.861-.541 1.25-.735-.069.235-.958 1.222-1.278 1.36-.028-.18-.097-.513.028-.625zM24.18 22.764c0 .209.097.431.264.584.097-.069.167-.209.167-.278.042-.389.069-.791.069-1.194.042-.166-.194-.208-.25-.041-.083.304-.236.609-.25.929zm20.445 16.111l-1.722.569c.402.459 1.569.084 1.722-.569zM19.263 7.584c.028.458-.055 1.027-.305 1.444-.028.056-.097.097-.167.152-.028-.083-.111-.152-.097-.208.097-.459.222-1.028.333-1.486.014-.027.083-.056.125-.069l.111.167zm24.126 32.93c.361 0 .722-.014 1-.097a.633.633 0 0 0 .167-.181c.042-.069.125-.319.153-.527l-.097-.028-.403.375a7.574 7.574 0 0 1-.833.167c-.056.056-.097.097-.139.166.054.07.096.111.152.125zM39.93 22.056c.125-.264.236-.514.333-.764.014-.056-.07-.194-.167-.292a.688.688 0 0 0-.208.098c-.083.111-.583.764-.542.819.042.069.223.069.584.139zm-28.819-7.292c.125-.319.277-.694.361-.93.069-.015.125-.015.167.014.056.277.014.722-.014.902a.69.69 0 0 1-.194.389.453.453 0 0 1-.181.125c-.07-.125-.112-.305-.139-.5zm21.014 6.834c-.25 0-.444.152-.472.375 0 .194.208.361.431.361.236-.015.417-.181.43-.39-.001-.221-.139-.346-.389-.346zm-.222 2.291c0-.25-.153-.416-.417-.416-.223 0-.375.139-.375.333 0 .223.236.444.472.431.195-.001.32-.153.32-.348zm-.945-2.347c0 .208-.125.333-.32.333-.264 0-.458-.166-.458-.402 0-.181.181-.375.375-.375.195-.014.403.166.403.444zm.167.931c-.222 0-.361.139-.361.333s.195.375.417.375c.166-.014.319-.181.319-.375.014-.181-.153-.333-.375-.333zM28.68 39.125c-.292 0-.542.139-.528.292.014.167.236.375.417.375s.292-.194.292-.444c-.014-.181 0-.223-.181-.223zM10.93 3.889c-.139-.555-.069-1.055.07-1.625.236.486.25 1.264-.07 1.625zm20.945 16.32c-.139.083-.264.235-.25.305.014.111.139.209.208.32a.575.575 0 0 0 .25-.292c.028-.069-.111-.181-.208-.333z" fill="#53565A" fill-rule="nonzero"/>
</svg>
