<svg width="140" height="23" viewBox="0 0 140 23" xmlns="http://www.w3.org/2000/svg">
    <g fill="#F36D21" fill-rule="nonzero">
        <path d="M0 20.3c3.7-.1 4.4-2.6 4.4-5.1V2h2v13.9c0 3.9-2.5 6.1-6.4 6.2v-1.8zM15 18c-3.3 0-5.5-2.4-5.5-6.2 0-3.5 2-6.2 5.7-6.2 3.3 0 5.5 2.4 5.5 6.2.1 3.7-2.1 6.2-5.7 6.2zm.1-10.6c-.9 0-1.8.4-2 .7-.3.3-1.3 1.7-1.3 3.7 0 3.7 2 4.6 3.6 4.6.8 0 1.7-.4 2-.6.3-.2 1.3-1.6 1.3-3.6-.1-2.3-.8-4.8-3.6-4.8zM33.1 17.7h-1.8L31 16c-1.2 1.6-2.1 2.1-3.8 2.1-2.1 0-3.8-.9-3.8-3.9V6h2v6.8c0 1.9.2 3.5 1.9 3.5 1 0 1.8-.4 2-.5.1-.1 1.1-1 1.6-2.1V6h2v8.5c0 .9 0 1.7.1 2.3l.1.9zM43.5 7.8l-1.6.5c0-.2-.1-1-.8-1-1.1 0-2.1 1.9-2.5 2.9v7.5h-2V9.1c0-.9 0-1.7-.1-2.3l-.1-.8h1.8l.3 1.9c.4-1 1.4-2.2 2.7-2.2 1.4 0 2.1.6 2.3 1.7 0 .2.1.3.1.3l-.1.1zM54.9 17.7h-2s.1-2.7.1-5.1v-2.5c-.1-1.8-.2-2.7-2-2.7-.6 0-1.5.2-1.6.3-.3.1-1.4 1.3-1.9 2.1v7.9h-2V9.2c0-.9 0-1.7-.1-2.3l-.2-.9H47l.3 1.7c1-1.2 2.1-2.1 3.8-2.1 2.1 0 3.5.7 3.7 3.1.1 1.2.1 2.3.1 3.5.1 2 0 5.5 0 5.5zM66.6 17.7c-.1-.4-.2-.8-.3-1.1l-.1-.5c-1 1.5-2.1 2-3.6 2-2.8 0-5-2.1-5-6 0-4.1 2-6.5 5.6-6.5 1.1 0 2.3.3 3 1.2l.4-.8h1.6L68 7.6v6.6c0 .9.3 2.7.5 3.5h-1.9zm-.6-6.5c0-2.6-1-3.8-2.7-3.8-.9 0-1.9.3-2.1.4-.3.3-1.4 1.4-1.4 4 0 3.4 1.6 4.5 3.2 4.5 1.3 0 2.3-.9 3-2.7v-2.4zM71.7.8h2v17h-2zM85.8 10.6h-6v7.1h-2.1V2h9v1.8h-6.9v5.1h6zM90.1 3.9c-.7 0-1.3-.7-1.3-1.5 0-.7.6-1.4 1.3-1.4.7 0 1.3.7 1.3 1.4s-.6 1.5-1.3 1.5zm-1 2.1h2v11.8h-2V6zM104.3 17.7h-2s.1-2.7.1-5.1v-2.5c-.1-1.8-.2-2.7-2-2.7-.6 0-1.5.2-1.6.3-.3.1-1.4 1.3-2 2.1v7.9h-2V9.2c0-.9 0-1.7-.1-2.3l-.1-.9h1.8l.3 1.7c1-1.2 2.1-2.1 3.8-2.1 2.1 0 3.5.7 3.7 3.1.1 1.2.1 2.3.1 3.5.1 2 0 5.5 0 5.5zM117.8 17.7H116c-.1-.3-.2-.9-.2-1.4-1.2 1.2-2.1 1.7-3.7 1.7-2.8 0-5-2.5-5-6.1 0-4 2.3-6.3 6-6.3 1.1 0 1.8.1 2.6.5V.8h2v13.7c0 .9 0 1.7.1 2.3v.9zm-2.5-8.2c0-1.7-.7-2.2-2.6-2.2-.8 0-1.9.1-2.2.4-.3.3-1.5 1.7-1.5 4 0 3.1 1.8 4.6 3.1 4.6 1.4 0 2.5-1 3.2-2.1V9.5zM122.3 11.6v.4c0 2.8 1.4 4.3 3.8 4.3 1.4 0 3-.6 3.7-1.2l.2 1.8c-1 .6-2.3 1.1-4.5 1.1-3 0-5.3-2.3-5.3-6.2 0-4.1 2.2-6.2 5.3-6.2 3.6 0 4.7 1.9 4.7 6h-7.9zm6.1-1.6c-.1-2.3-1.1-2.7-3-2.7-.5 0-1.4.2-1.6.4-.2.2-1.1.9-1.3 2.3h5.9zM139.9 7.8l-1.6.5c0-.2-.1-1-.8-1-1.1 0-2.1 1.9-2.5 2.9v7.5h-2V9.1c0-.9 0-1.7-.1-2.3l-.2-.8h1.8l.3 1.9c.4-1 1.4-2.2 2.7-2.2 1.4 0 2.1.6 2.3 1.7 0 .2.1.3.1.3v.1z"/>
    </g>
</svg>